<svg xmlns="http://www.w3.org/2000/svg" xmlns:xlink="http://www.w3.org/1999/xlink" width="120" zoomAndPan="magnify" viewBox="0 0 90 30.000001" height="40" preserveAspectRatio="xMidYMid meet" version="1.0"><defs><g/><clipPath id="267c9fee80"><path d="M 2.46875 4.796875 L 21.339844 4.796875 L 21.339844 23.667969 L 2.46875 23.667969 Z M 2.46875 4.796875 " clip-rule="nonzero"/></clipPath><clipPath id="b22c5dd3cc"><rect x="0" width="34" y="0" height="10"/></clipPath><clipPath id="06e288b402"><path d="M 57 5 L 88.546875 5 L 88.546875 23 L 57 23 Z M 57 5 " clip-rule="nonzero"/></clipPath><clipPath id="ccfee4d205"><path d="M 0.195312 4 L 11 4 L 11 14 L 0.195312 14 Z M 0.195312 4 " clip-rule="nonzero"/></clipPath><clipPath id="55a54bd0f4"><rect x="0" width="32" y="0" height="18"/></clipPath></defs><g clip-path="url(#267c9fee80)"><path fill="#ffffff" d="M 4.503906 18.953125 C 3.441406 17.894531 2.796875 16.628906 2.566406 15.152344 C 2.457031 14.480469 2.449219 13.808594 2.539062 13.136719 C 2.710938 12.480469 3.039062 11.914062 3.519531 11.4375 L 6.171875 8.78125 C 6.457031 8.496094 6.78125 8.265625 7.140625 8.082031 C 7.5 7.902344 7.882812 7.78125 8.28125 7.722656 C 8.679688 7.664062 9.078125 7.667969 9.476562 7.738281 C 9.875 7.804688 10.253906 7.9375 10.609375 8.125 C 11.074219 8.335938 12.128906 9.03125 13.015625 9.910156 C 12.457031 9.390625 9.859375 9.003906 8.800781 9.9375 L 8.328125 10.40625 C 6.292969 12.441406 6.292969 15.757812 8.328125 17.792969 C 8.328125 17.792969 11.542969 21.582031 14.671875 21.972656 C 15.199219 22.035156 15.734375 21.890625 16.242188 21.730469 C 15.933594 21.992188 15.605469 22.222656 15.253906 22.425781 C 14.90625 22.628906 14.542969 22.800781 14.164062 22.9375 C 13.785156 23.078125 13.394531 23.183594 13 23.253906 C 12.601562 23.324219 12.199219 23.363281 11.796875 23.363281 C 11.394531 23.363281 10.992188 23.332031 10.59375 23.261719 C 10.199219 23.191406 9.808594 23.089844 9.429688 22.953125 C 9.050781 22.816406 8.683594 22.648438 8.332031 22.445312 C 7.984375 22.246094 7.652344 22.015625 7.34375 21.757812 C 7.183594 21.625 7.03125 21.484375 6.882812 21.335938 Z M 8.828125 6.191406 C 11.957031 6.578125 15.171875 10.371094 15.171875 10.371094 C 17.207031 12.402344 17.207031 15.71875 15.171875 17.753906 L 14.703125 18.226562 C 13.542969 19.210938 11.042969 18.769531 10.484375 18.253906 C 11.371094 19.128906 12.425781 19.828125 12.890625 20.035156 C 13.25 20.226562 13.625 20.355469 14.023438 20.425781 C 14.421875 20.492188 14.820312 20.5 15.21875 20.4375 C 15.617188 20.378906 16 20.261719 16.359375 20.078125 C 16.71875 19.898438 17.042969 19.664062 17.328125 19.378906 L 19.984375 16.726562 C 20.460938 16.246094 20.789062 15.679688 20.960938 15.027344 C 21.050781 14.351562 21.042969 13.683594 20.9375 13.011719 C 20.703125 11.535156 20.058594 10.265625 18.996094 9.210938 L 16.613281 6.824219 C 16.46875 6.675781 16.316406 6.539062 16.15625 6.402344 C 15.847656 6.144531 15.515625 5.914062 15.164062 5.714844 C 14.816406 5.515625 14.449219 5.34375 14.070312 5.207031 C 13.691406 5.070312 13.300781 4.96875 12.90625 4.898438 C 12.507812 4.828125 12.105469 4.796875 11.703125 4.796875 C 11.296875 4.796875 10.898438 4.835938 10.5 4.90625 C 10.101562 4.976562 9.714844 5.082031 9.335938 5.222656 C 8.957031 5.359375 8.59375 5.53125 8.242188 5.734375 C 7.894531 5.9375 7.566406 6.167969 7.257812 6.429688 C 7.765625 6.269531 8.300781 6.125 8.828125 6.191406 Z M 8.828125 6.191406 " fill-opacity="1" fill-rule="nonzero"/></g><g transform="matrix(1, 0, 0, 1, 23, 9)"><g clip-path="url(#b22c5dd3cc)"><g fill="#ffffff" fill-opacity="1"><g transform="translate(0.825988, 7.742827)"><g><path d="M 2.78125 0.0625 C 2.238281 0.0703125 1.773438 -0.0195312 1.390625 -0.21875 C 1.003906 -0.414062 0.707031 -0.695312 0.5 -1.0625 C 0.289062 -1.4375 0.1875 -1.882812 0.1875 -2.40625 C 0.1875 -2.9375 0.296875 -3.398438 0.515625 -3.796875 C 0.742188 -4.203125 1.0625 -4.515625 1.46875 -4.734375 C 1.875 -4.953125 2.34375 -5.0625 2.875 -5.0625 C 3.375 -5.0625 3.804688 -4.957031 4.171875 -4.75 C 4.535156 -4.539062 4.820312 -4.253906 5.03125 -3.890625 C 5.238281 -3.523438 5.34375 -3.09375 5.34375 -2.59375 C 5.34375 -2.070312 5.234375 -1.609375 5.015625 -1.203125 C 4.804688 -0.804688 4.507812 -0.492188 4.125 -0.265625 C 3.738281 -0.046875 3.289062 0.0625 2.78125 0.0625 Z M 2.75 -1.15625 C 3.113281 -1.15625 3.398438 -1.28125 3.609375 -1.53125 C 3.816406 -1.789062 3.921875 -2.132812 3.921875 -2.5625 C 3.921875 -2.945312 3.820312 -3.253906 3.625 -3.484375 C 3.425781 -3.710938 3.160156 -3.828125 2.828125 -3.828125 C 2.578125 -3.828125 2.359375 -3.765625 2.171875 -3.640625 C 1.992188 -3.523438 1.851562 -3.363281 1.75 -3.15625 C 1.65625 -2.945312 1.609375 -2.707031 1.609375 -2.4375 C 1.609375 -2.03125 1.707031 -1.710938 1.90625 -1.484375 C 2.113281 -1.265625 2.394531 -1.15625 2.75 -1.15625 Z M 2.75 -1.15625 "/></g></g></g><g fill="#ffffff" fill-opacity="1"><g transform="translate(7.506534, 7.742827)"><g><path d="M 1.796875 0 L 0.421875 0 L 0.421875 -4.984375 L 2.3125 -4.984375 C 3.082031 -4.984375 3.648438 -4.84375 4.015625 -4.5625 C 4.390625 -4.289062 4.578125 -3.890625 4.578125 -3.359375 C 4.578125 -2.992188 4.476562 -2.679688 4.28125 -2.421875 C 4.09375 -2.171875 3.820312 -1.972656 3.46875 -1.828125 C 3.125 -1.691406 2.707031 -1.625 2.21875 -1.625 L 1.796875 -1.625 Z M 2.359375 -3.859375 L 1.796875 -3.859375 L 1.796875 -2.765625 L 2.28125 -2.765625 C 2.570312 -2.765625 2.789062 -2.804688 2.9375 -2.890625 C 3.09375 -2.984375 3.171875 -3.132812 3.171875 -3.34375 C 3.171875 -3.519531 3.101562 -3.648438 2.96875 -3.734375 C 2.84375 -3.816406 2.640625 -3.859375 2.359375 -3.859375 Z M 2.359375 -3.859375 "/></g></g></g><g fill="#ffffff" fill-opacity="1"><g transform="translate(13.279971, 7.742827)"><g><path d="M 0.421875 0 L 0.421875 -4.984375 L 1.828125 -4.984375 L 1.828125 0 Z M 0.421875 0 "/></g></g></g><g fill="#ffffff" fill-opacity="1"><g transform="translate(16.683674, 7.742827)"><g><path d="M 3.609375 -4.984375 L 4.953125 -4.984375 L 4.953125 0 L 3.703125 0 L 1.765625 -2.6875 L 1.765625 0 L 0.421875 0 L 0.421875 -4.984375 L 1.671875 -4.984375 L 3.609375 -2.3125 Z M 3.609375 -4.984375 "/></g></g></g><g fill="#ffffff" fill-opacity="1"><g transform="translate(23.216551, 7.742827)"><g><path d="M 0.421875 0 L 0.421875 -4.984375 L 1.828125 -4.984375 L 1.828125 0 Z M 0.421875 0 "/></g></g></g><g fill="#ffffff" fill-opacity="1"><g transform="translate(26.620254, 7.742827)"><g><path d="M 2.78125 0.0625 C 2.238281 0.0703125 1.773438 -0.0195312 1.390625 -0.21875 C 1.003906 -0.414062 0.707031 -0.695312 0.5 -1.0625 C 0.289062 -1.4375 0.1875 -1.882812 0.1875 -2.40625 C 0.1875 -2.9375 0.296875 -3.398438 0.515625 -3.796875 C 0.742188 -4.203125 1.0625 -4.515625 1.46875 -4.734375 C 1.875 -4.953125 2.34375 -5.0625 2.875 -5.0625 C 3.375 -5.0625 3.804688 -4.957031 4.171875 -4.75 C 4.535156 -4.539062 4.820312 -4.253906 5.03125 -3.890625 C 5.238281 -3.523438 5.34375 -3.09375 5.34375 -2.59375 C 5.34375 -2.070312 5.234375 -1.609375 5.015625 -1.203125 C 4.804688 -0.804688 4.507812 -0.492188 4.125 -0.265625 C 3.738281 -0.046875 3.289062 0.0625 2.78125 0.0625 Z M 2.75 -1.15625 C 3.113281 -1.15625 3.398438 -1.28125 3.609375 -1.53125 C 3.816406 -1.789062 3.921875 -2.132812 3.921875 -2.5625 C 3.921875 -2.945312 3.820312 -3.253906 3.625 -3.484375 C 3.425781 -3.710938 3.160156 -3.828125 2.828125 -3.828125 C 2.578125 -3.828125 2.359375 -3.765625 2.171875 -3.640625 C 1.992188 -3.523438 1.851562 -3.363281 1.75 -3.15625 C 1.65625 -2.945312 1.609375 -2.707031 1.609375 -2.4375 C 1.609375 -2.03125 1.707031 -1.710938 1.90625 -1.484375 C 2.113281 -1.265625 2.394531 -1.15625 2.75 -1.15625 Z M 2.75 -1.15625 "/></g></g></g></g></g><g clip-path="url(#06e288b402)"><g transform="matrix(1, 0, 0, 1, 57, 5)"><g clip-path="url(#55a54bd0f4)"><g clip-path="url(#ccfee4d205)"><g fill="#ffffff" fill-opacity="1"><g transform="translate(1.111975, 13.481339)"><g><path d="M -0.515625 0 L 3.640625 -9.421875 L 5.84375 -9.421875 L 9.84375 0 L 7.15625 0 L 6.5 -1.6875 L 2.859375 -1.6875 L 2.15625 0 Z M 3.75 -3.875 L 5.625 -3.875 L 4.703125 -6.1875 Z M 3.75 -3.875 "/></g></g></g></g><g fill="#ffffff" fill-opacity="1"><g transform="translate(12.659906, 13.481339)"><g><path d="M 8.53125 -9.421875 L 8.140625 -7.109375 L 5.390625 -7.109375 L 5.390625 0 L 2.734375 0 L 2.734375 -7.109375 L -0.21875 -7.109375 L -0.21875 -9.421875 Z M 8.53125 -9.421875 "/></g></g></g><g fill="#ffffff" fill-opacity="1"><g transform="translate(22.93512, 13.481339)"><g><path d="M 3.96875 0.125 C 2.78125 0.125 1.851562 -0.125 1.1875 -0.625 C 0.53125 -1.125 0.15625 -1.859375 0.0625 -2.828125 L 2.515625 -3.1875 C 2.535156 -2.84375 2.679688 -2.566406 2.953125 -2.359375 C 3.234375 -2.160156 3.597656 -2.0625 4.046875 -2.0625 C 4.859375 -2.0625 5.265625 -2.269531 5.265625 -2.6875 C 5.265625 -2.882812 5.148438 -3.039062 4.921875 -3.15625 C 4.703125 -3.28125 4.335938 -3.40625 3.828125 -3.53125 C 2.722656 -3.789062 1.914062 -4.140625 1.40625 -4.578125 C 0.894531 -5.023438 0.644531 -5.648438 0.65625 -6.453125 C 0.65625 -7.066406 0.8125 -7.601562 1.125 -8.0625 C 1.445312 -8.53125 1.890625 -8.894531 2.453125 -9.15625 C 3.023438 -9.414062 3.695312 -9.546875 4.46875 -9.546875 C 5.414062 -9.546875 6.195312 -9.304688 6.8125 -8.828125 C 7.425781 -8.359375 7.773438 -7.710938 7.859375 -6.890625 L 5.546875 -6.484375 C 5.503906 -6.742188 5.367188 -6.953125 5.140625 -7.109375 C 4.910156 -7.273438 4.640625 -7.359375 4.328125 -7.359375 C 4.023438 -7.359375 3.78125 -7.296875 3.59375 -7.171875 C 3.414062 -7.054688 3.328125 -6.898438 3.328125 -6.703125 C 3.328125 -6.515625 3.414062 -6.351562 3.59375 -6.21875 C 3.78125 -6.082031 4.125 -5.953125 4.625 -5.828125 C 5.351562 -5.648438 5.960938 -5.445312 6.453125 -5.21875 C 6.941406 -4.988281 7.3125 -4.695312 7.5625 -4.34375 C 7.820312 -4 7.953125 -3.535156 7.953125 -2.953125 C 7.953125 -2.347656 7.785156 -1.8125 7.453125 -1.34375 C 7.117188 -0.882812 6.648438 -0.523438 6.046875 -0.265625 C 5.453125 -0.00390625 4.757812 0.125 3.96875 0.125 Z M 3.96875 0.125 "/></g></g></g></g></g></g></svg>